<?xml version="1.0" encoding="UTF-8" standalone="no"?>
<!DOCTYPE svg PUBLIC "-//W3C//DTD SVG 1.1//EN"
 "http://www.w3.org/Graphics/SVG/1.1/DTD/svg11.dtd">
<!-- Generated by graphviz version 2.42.4 (0)
 -->
<!-- Title: G Pages: 1 -->
<svg width="977pt" height="72pt"
 viewBox="0.00 0.00 977.00 72.00" xmlns="http://www.w3.org/2000/svg" xmlns:xlink="http://www.w3.org/1999/xlink">
<g id="graph0" class="graph" transform="scale(1 1) rotate(0) translate(18 54)">
<title>G</title>
<polygon fill="white" stroke="transparent" points="-18,18 -18,-54 959,-54 959,18 -18,18"/>
<!-- n0 -->
<g id="node1" class="node">
<title>n0</title>
<path fill="#e8f0fe" stroke="#5f6368" d="M72,-36C72,-36 12,-36 12,-36 6,-36 0,-30 0,-24 0,-24 0,-12 0,-12 0,-6 6,0 12,0 12,0 72,0 72,0 78,0 84,-6 84,-12 84,-12 84,-24 84,-24 84,-30 78,-36 72,-36"/>
<text text-anchor="middle" x="42" y="-15.2" font-family="Helvetica,sans-Serif" font-size="11.00">Policy Files</text>
</g>
<!-- n1 -->
<g id="node2" class="node">
<title>n1</title>
<path fill="#e6f4ea" stroke="#5f6368" d="M222,-36C222,-36 146,-36 146,-36 140,-36 134,-30 134,-24 134,-24 134,-12 134,-12 134,-6 140,0 146,0 146,0 222,0 222,0 228,0 234,-6 234,-12 234,-12 234,-24 234,-24 234,-30 228,-36 222,-36"/>
<text text-anchor="middle" x="184" y="-15.2" font-family="Helvetica,sans-Serif" font-size="11.00">Load &amp; Chunk</text>
</g>
<!-- n0&#45;&gt;n1 -->
<g id="edge1" class="edge">
<title>n0&#45;&gt;n1</title>
<path fill="none" stroke="#5f6368" stroke-width="1.4" d="M84.25,-18C97.26,-18 111.88,-18 125.8,-18"/>
<polygon fill="#5f6368" stroke="#5f6368" stroke-width="1.4" points="125.89,-20.8 133.89,-18 125.89,-15.2 125.89,-20.8"/>
</g>
<!-- n2 -->
<g id="node3" class="node">
<title>n2</title>
<path fill="#fce8e6" stroke="#5f6368" d="M363,-36C363,-36 296,-36 296,-36 290,-36 284,-30 284,-24 284,-24 284,-12 284,-12 284,-6 290,0 296,0 296,0 363,0 363,0 369,0 375,-6 375,-12 375,-12 375,-24 375,-24 375,-30 369,-36 363,-36"/>
<text text-anchor="middle" x="329.5" y="-15.2" font-family="Helvetica,sans-Serif" font-size="11.00">Embeddings</text>
</g>
<!-- n1&#45;&gt;n2 -->
<g id="edge2" class="edge">
<title>n1&#45;&gt;n2</title>
<path fill="none" stroke="#5f6368" stroke-width="1.4" d="M234.38,-18C247.68,-18 262.11,-18 275.59,-18"/>
<polygon fill="#5f6368" stroke="#5f6368" stroke-width="1.4" points="275.84,-20.8 283.84,-18 275.84,-15.2 275.84,-20.8"/>
</g>
<!-- n3 -->
<g id="node4" class="node">
<title>n3</title>
<path fill="#fff4ce" stroke="#5f6368" d="M467,-36C467,-36 437,-36 437,-36 431,-36 425,-30 425,-24 425,-24 425,-12 425,-12 425,-6 431,0 437,0 437,0 467,0 467,0 473,0 479,-6 479,-12 479,-12 479,-24 479,-24 479,-30 473,-36 467,-36"/>
<text text-anchor="middle" x="452" y="-15.2" font-family="Helvetica,sans-Serif" font-size="11.00">FAISS</text>
</g>
<!-- n2&#45;&gt;n3 -->
<g id="edge3" class="edge">
<title>n2&#45;&gt;n3</title>
<path fill="none" stroke="#5f6368" stroke-width="1.4" d="M375.03,-18C388.78,-18 403.7,-18 416.65,-18"/>
<polygon fill="#5f6368" stroke="#5f6368" stroke-width="1.4" points="416.85,-20.8 424.85,-18 416.85,-15.2 416.85,-20.8"/>
</g>
<!-- n4 -->
<g id="node5" class="node">
<title>n4</title>
<path fill="#f3e8fd" stroke="#5f6368" d="M623,-36C623,-36 541,-36 541,-36 535,-36 529,-30 529,-24 529,-24 529,-12 529,-12 529,-6 535,0 541,0 541,0 623,0 623,0 629,0 635,-6 635,-12 635,-12 635,-24 635,-24 635,-30 629,-36 623,-36"/>
<text text-anchor="middle" x="582" y="-15.2" font-family="Helvetica,sans-Serif" font-size="11.00">Top&#45;k Retrieval</text>
</g>
<!-- n3&#45;&gt;n4 -->
<g id="edge4" class="edge">
<title>n3&#45;&gt;n4</title>
<path fill="none" stroke="#5f6368" stroke-width="1.4" d="M479.21,-18C491.31,-18 506.21,-18 520.84,-18"/>
<polygon fill="#5f6368" stroke="#5f6368" stroke-width="1.4" points="520.92,-20.8 528.92,-18 520.92,-15.2 520.92,-20.8"/>
</g>
<!-- n5 -->
<g id="node6" class="node">
<title>n5</title>
<path fill="#e0f7fa" stroke="#5f6368" d="M760,-36C760,-36 697,-36 697,-36 691,-36 685,-30 685,-24 685,-24 685,-12 685,-12 685,-6 691,0 697,0 697,0 760,0 760,0 766,0 772,-6 772,-12 772,-12 772,-24 772,-24 772,-30 766,-36 760,-36"/>
<text text-anchor="middle" x="728.5" y="-15.2" font-family="Helvetica,sans-Serif" font-size="11.00">gpt&#45;4o&#45;mini</text>
</g>
<!-- n4&#45;&gt;n5 -->
<g id="edge5" class="edge">
<title>n4&#45;&gt;n5</title>
<path fill="none" stroke="#5f6368" stroke-width="1.4" d="M635.17,-18C648.69,-18 663.23,-18 676.69,-18"/>
<polygon fill="#5f6368" stroke="#5f6368" stroke-width="1.4" points="676.9,-20.8 684.9,-18 676.9,-15.2 676.9,-20.8"/>
</g>
<!-- n6 -->
<g id="node7" class="node">
<title>n6</title>
<path fill="#e8f5e9" stroke="#5f6368" d="M929,-36C929,-36 834,-36 834,-36 828,-36 822,-30 822,-24 822,-24 822,-12 822,-12 822,-6 828,0 834,0 834,0 929,0 929,0 935,0 941,-6 941,-12 941,-12 941,-24 941,-24 941,-30 935,-36 929,-36"/>
<text text-anchor="middle" x="881.5" y="-15.2" font-family="Helvetica,sans-Serif" font-size="11.00">Answer + Source</text>
</g>
<!-- n5&#45;&gt;n6 -->
<g id="edge6" class="edge">
<title>n5&#45;&gt;n6</title>
<path fill="none" stroke="#5f6368" stroke-width="1.4" d="M772.37,-18C785.19,-18 799.58,-18 813.57,-18"/>
<polygon fill="#5f6368" stroke="#5f6368" stroke-width="1.4" points="813.74,-20.8 821.74,-18 813.74,-15.2 813.74,-20.8"/>
</g>
</g>
</svg>
