<?xml version="1.0" encoding="UTF-8" standalone="no"?>
<!DOCTYPE svg PUBLIC "-//W3C//DTD SVG 1.1//EN"
 "http://www.w3.org/Graphics/SVG/1.1/DTD/svg11.dtd">
<!-- Generated by graphviz version 2.42.4 (0)
 -->
<!-- Title: AgentToolFlow Pages: 1 -->
<svg width="799pt" height="253pt"
 viewBox="0.00 0.00 799.00 253.00" xmlns="http://www.w3.org/2000/svg" xmlns:xlink="http://www.w3.org/1999/xlink">
<g id="graph0" class="graph" transform="scale(1 1) rotate(0) translate(18 235)">
<title>AgentToolFlow</title>
<polygon fill="white" stroke="transparent" points="-18,18 -18,-235 781,-235 781,18 -18,18"/>
<!-- user -->
<g id="node1" class="node">
<title>user</title>
<path fill="#e6f4ea" stroke="#188038" d="M198,-136C198,-136 12,-136 12,-136 6,-136 0,-130 0,-124 0,-124 0,-108 0,-108 0,-102 6,-96 12,-96 12,-96 198,-96 198,-96 204,-96 210,-102 210,-108 210,-108 210,-124 210,-124 210,-130 204,-136 198,-136"/>
<text text-anchor="middle" x="105" y="-119.4" font-family="Helvetica,sans-Serif" font-size="12.00">User Question</text>
<text text-anchor="middle" x="105" y="-106.4" font-family="Helvetica,sans-Serif" font-size="12.00">Business plan + 12&#45;month cost</text>
</g>
<!-- agent -->
<g id="node2" class="node">
<title>agent</title>
<path fill="#fce8e6" stroke="#d93025" d="M403,-136C403,-136 309,-136 309,-136 303,-136 297,-130 297,-124 297,-124 297,-108 297,-108 297,-102 303,-96 309,-96 309,-96 403,-96 403,-96 409,-96 415,-102 415,-108 415,-108 415,-124 415,-124 415,-130 409,-136 403,-136"/>
<text text-anchor="middle" x="356" y="-119.4" font-family="Helvetica,sans-Serif" font-size="12.00">LLM Agent</text>
<text text-anchor="middle" x="356" y="-106.4" font-family="Helvetica,sans-Serif" font-size="12.00">Decision maker</text>
</g>
<!-- user&#45;&gt;agent -->
<g id="edge1" class="edge">
<title>user&#45;&gt;agent</title>
<path fill="none" stroke="#5f6368" stroke-width="1.5" d="M210.16,-116C236.74,-116 264.59,-116 288.69,-116"/>
<polygon fill="#5f6368" stroke="#5f6368" stroke-width="1.5" points="288.71,-118.8 296.71,-116 288.71,-113.2 288.71,-118.8"/>
<text text-anchor="middle" x="253.5" y="-119" font-family="Helvetica,sans-Serif" font-size="10.00">request</text>
</g>
<!-- lookup -->
<g id="node3" class="node">
<title>lookup</title>
<path fill="#e8f0fe" stroke="#1a73e8" d="M748.5,-213C748.5,-213 640.5,-213 640.5,-213 634.5,-213 628.5,-207 628.5,-201 628.5,-201 628.5,-185 628.5,-185 628.5,-179 634.5,-173 640.5,-173 640.5,-173 748.5,-173 748.5,-173 754.5,-173 760.5,-179 760.5,-185 760.5,-185 760.5,-201 760.5,-201 760.5,-207 754.5,-213 748.5,-213"/>
<text text-anchor="middle" x="694.5" y="-196.4" font-family="Helvetica,sans-Serif" font-size="12.00">plan_lookup</text>
<text text-anchor="middle" x="694.5" y="-183.4" font-family="Helvetica,sans-Serif" font-size="12.00">Returns plan facts</text>
</g>
<!-- agent&#45;&gt;lookup -->
<g id="edge2" class="edge">
<title>agent&#45;&gt;lookup</title>
<path fill="none" stroke="#5f6368" stroke-width="1.5" d="M373.34,-136.19C388.55,-153.29 412.91,-176.63 440,-187 497.66,-209.08 568.22,-208.76 620.25,-203.97"/>
<polygon fill="#5f6368" stroke="#5f6368" stroke-width="1.5" points="620.75,-206.73 628.44,-203.16 620.2,-201.16 620.75,-206.73"/>
<text text-anchor="middle" x="520.5" y="-209" font-family="Helvetica,sans-Serif" font-size="10.00">1. select tool</text>
</g>
<!-- calc -->
<g id="node4" class="node">
<title>calc</title>
<path fill="#e8f0fe" stroke="#1a73e8" d="M751,-124C751,-124 638,-124 638,-124 632,-124 626,-118 626,-112 626,-112 626,-96 626,-96 626,-90 632,-84 638,-84 638,-84 751,-84 751,-84 757,-84 763,-90 763,-96 763,-96 763,-112 763,-112 763,-118 757,-124 751,-124"/>
<text text-anchor="middle" x="694.5" y="-107.4" font-family="Helvetica,sans-Serif" font-size="12.00">total_cost</text>
<text text-anchor="middle" x="694.5" y="-94.4" font-family="Helvetica,sans-Serif" font-size="12.00">Calculates 99 × 12</text>
</g>
<!-- agent&#45;&gt;calc -->
<g id="edge4" class="edge">
<title>agent&#45;&gt;calc</title>
<path fill="none" stroke="#5f6368" stroke-width="1.5" d="M415.23,-113.92C471.31,-111.92 556.42,-108.89 617.75,-106.7"/>
<polygon fill="#5f6368" stroke="#5f6368" stroke-width="1.5" points="617.96,-109.5 625.86,-106.41 617.76,-103.9 617.96,-109.5"/>
<text text-anchor="middle" x="520.5" y="-115" font-family="Helvetica,sans-Serif" font-size="10.00">2. select tool</text>
</g>
<!-- answer -->
<g id="node5" class="node">
<title>answer</title>
<path fill="#e6f4ea" stroke="#188038" d="M749.5,-40C749.5,-40 639.5,-40 639.5,-40 633.5,-40 627.5,-34 627.5,-28 627.5,-28 627.5,-12 627.5,-12 627.5,-6 633.5,0 639.5,0 639.5,0 749.5,0 749.5,0 755.5,0 761.5,-6 761.5,-12 761.5,-12 761.5,-28 761.5,-28 761.5,-34 755.5,-40 749.5,-40"/>
<text text-anchor="middle" x="694.5" y="-23.4" font-family="Helvetica,sans-Serif" font-size="12.00">Final Answer</text>
<text text-anchor="middle" x="694.5" y="-10.4" font-family="Helvetica,sans-Serif" font-size="12.00">Features + $1,188</text>
</g>
<!-- agent&#45;&gt;answer -->
<g id="edge6" class="edge">
<title>agent&#45;&gt;answer</title>
<path fill="none" stroke="#5f6368" stroke-width="1.5" d="M382.03,-95.78C397.77,-84.1 419.01,-70.15 440,-62 497.83,-39.54 567.63,-29.09 619.34,-24.22"/>
<polygon fill="#5f6368" stroke="#5f6368" stroke-width="1.5" points="619.76,-27 627.47,-23.49 619.26,-21.42 619.76,-27"/>
<text text-anchor="middle" x="520.5" y="-65" font-family="Helvetica,sans-Serif" font-size="10.00">compose response</text>
</g>
<!-- lookup&#45;&gt;agent -->
<g id="edge3" class="edge">
<title>lookup&#45;&gt;agent</title>
<path fill="none" stroke="#5f6368" stroke-width="1.5" d="M647.54,-172.98C632.88,-167.17 616.45,-161.26 601,-157 568.4,-148.02 483.62,-134.58 423.17,-125.56"/>
<polygon fill="#5f6368" stroke="#5f6368" stroke-width="1.5" points="423.5,-122.78 415.18,-124.37 422.68,-128.32 423.5,-122.78"/>
<text text-anchor="middle" x="520.5" y="-171" font-family="Helvetica,sans-Serif" font-size="10.00">price = 99</text>
<text text-anchor="middle" x="520.5" y="-160" font-family="Helvetica,sans-Serif" font-size="10.00">features = audit logs, API access</text>
</g>
<!-- calc&#45;&gt;agent -->
<g id="edge5" class="edge">
<title>calc&#45;&gt;agent</title>
<path fill="none" stroke="#5f6368" stroke-width="1.5" d="M625.98,-90.95C617.59,-89.73 609.12,-88.7 601,-88 529.71,-81.88 510.61,-76.41 440,-88 432.12,-89.29 423.98,-91.23 416.02,-93.5"/>
<polygon fill="#5f6368" stroke="#5f6368" stroke-width="1.5" points="415,-90.89 408.14,-95.87 416.61,-96.25 415,-90.89"/>
<text text-anchor="middle" x="520.5" y="-91" font-family="Helvetica,sans-Serif" font-size="10.00">result = 1188</text>
</g>
</g>
</svg>
